<svg width="109" height="75" viewBox="0 0 109 75" fill="none" xmlns="http://www.w3.org/2000/svg">
<path d="M53.75 37.7C53.75 44.0333 53.0667 49.5333 51.7 54.2C50.3333 58.8667 48.45 62.7333 46.05 65.8C43.65 68.8333 40.8 71.1 37.5 72.6C34.2333 74.0667 30.7 74.8 26.9 74.8C23.1 74.8 19.5667 74.0667 16.3 72.6C13.0333 71.1 10.2167 68.8333 7.85 65.8C5.48333 62.7333 3.61667 58.8667 2.25 54.2C0.916667 49.5333 0.25 44.0333 0.25 37.7C0.25 31.3667 0.916667 25.8833 2.25 21.25C3.61667 16.5833 5.48333 12.7333 7.85 9.7C10.2167 6.63333 13.0333 4.36667 16.3 2.9C19.5667 1.39999 23.1 0.649994 26.9 0.649994C30.7 0.649994 34.2333 1.39999 37.5 2.9C40.8 4.36667 43.65 6.63333 46.05 9.7C48.45 12.7333 50.3333 16.5833 51.7 21.25C53.0667 25.8833 53.75 31.3667 53.75 37.7ZM39.5 37.7C39.5 32.5667 39.1333 28.3333 38.4 25C37.7 21.6667 36.7667 19.0333 35.6 17.1C34.4333 15.1667 33.0833 13.8167 31.55 13.05C30.05 12.2833 28.5 11.9 26.9 11.9C25.3 11.9 23.75 12.2833 22.25 13.05C20.7833 13.8167 19.4667 15.1667 18.3 17.1C17.1667 19.0333 16.25 21.6667 15.55 25C14.85 28.3333 14.5 32.5667 14.5 37.7C14.5 42.8667 14.85 47.1167 15.55 50.45C16.25 53.7833 17.1667 56.4167 18.3 58.35C19.4667 60.2833 20.7833 61.6333 22.25 62.4C23.75 63.1667 25.3 63.55 26.9 63.55C28.5 63.55 30.05 63.1667 31.55 62.4C33.0833 61.6333 34.4333 60.2833 35.6 58.35C36.7667 56.4167 37.7 53.7833 38.4 50.45C39.1333 47.1167 39.5 42.8667 39.5 37.7ZM108.108 63.85V74H67.4078V63.85H81.8078V24.15C81.8078 23.2833 81.8245 22.4 81.8578 21.5C81.8911 20.6 81.9411 19.6833 82.0078 18.75L72.5078 26.65C71.8411 27.15 71.1911 27.4667 70.5578 27.6C69.9245 27.7333 69.3245 27.75 68.7578 27.65C68.1911 27.5167 67.6911 27.3167 67.2578 27.05C66.8245 26.75 66.4911 26.45 66.2578 26.15L61.9078 20.3L84.2078 1.4H95.5578V63.85H108.108Z" fill="#232A32"/>
</svg>
