<svg width="111" height="75" viewBox="0 0 111 75" fill="none" xmlns="http://www.w3.org/2000/svg">
<path d="M54 37.55C54 43.9167 53.3167 49.4333 51.95 54.1C50.5833 58.7667 48.6833 62.6333 46.25 65.7C43.85 68.7667 40.9833 71.05 37.65 72.55C34.35 74.05 30.7667 74.8 26.9 74.8C23.0333 74.8 19.45 74.05 16.15 72.55C12.8833 71.05 10.05 68.7667 7.65 65.7C5.25 62.6333 3.36667 58.7667 2 54.1C0.666667 49.4333 1.41561e-07 43.9167 1.41561e-07 37.55C1.41561e-07 31.1833 0.666667 25.6667 2 21C3.36667 16.3333 5.25 12.4667 7.65 9.4C10.05 6.33333 12.8833 4.06666 16.15 2.6C19.45 1.1 23.0333 0.349998 26.9 0.349998C30.7667 0.349998 34.35 1.1 37.65 2.6C40.9833 4.06666 43.85 6.33333 46.25 9.4C48.6833 12.4667 50.5833 16.3333 51.95 21C53.3167 25.6667 54 31.1833 54 37.55ZM38 37.55C38 32.5167 37.6833 28.4 37.05 25.2C36.4167 21.9667 35.5667 19.4333 34.5 17.6C33.4667 15.7667 32.2833 14.5167 30.95 13.85C29.6167 13.15 28.2667 12.8 26.9 12.8C25.5333 12.8 24.1833 13.15 22.85 13.85C21.55 14.5167 20.3833 15.7667 19.35 17.6C18.35 19.4333 17.5333 21.9667 16.9 25.2C16.3 28.4 16 32.5167 16 37.55C16 42.6167 16.3 46.75 16.9 49.95C17.5333 53.15 18.35 55.6833 19.35 57.55C20.3833 59.3833 21.55 60.65 22.85 61.35C24.1833 62.0167 25.5333 62.35 26.9 62.35C28.2667 62.35 29.6167 62.0167 30.95 61.35C32.2833 60.65 33.4667 59.3833 34.5 57.55C35.5667 55.6833 36.4167 53.15 37.05 49.95C37.6833 46.75 38 42.6167 38 37.55ZM85.8078 0.349998C89.4078 0.349998 92.6411 0.88333 95.5078 1.94999C98.4078 2.98333 100.874 4.43333 102.908 6.3C104.941 8.16666 106.491 10.4 107.558 13C108.658 15.5667 109.208 18.4 109.208 21.5C109.208 24.1667 108.824 26.6333 108.058 28.9C107.324 31.1667 106.308 33.3333 105.008 35.4C103.708 37.4333 102.191 39.4167 100.458 41.35C98.7578 43.25 96.9411 45.1833 95.0078 47.15L80.7578 61.75C82.5911 61.2167 84.3911 60.8 86.1578 60.5C87.9578 60.1667 89.6411 60 91.2078 60H104.808C106.474 60 107.791 60.4667 108.758 61.4C109.724 62.3 110.208 63.5 110.208 65V74H59.0078V69C59.0078 68.0333 59.2078 67 59.6078 65.9C60.0078 64.8 60.7078 63.8 61.7078 62.9L82.7078 41.75C84.5078 39.95 86.0745 38.2333 87.4078 36.6C88.7411 34.9667 89.8411 33.3667 90.7078 31.8C91.5745 30.2 92.2245 28.6167 92.6578 27.05C93.0911 25.45 93.3078 23.7667 93.3078 22C93.3078 19.1 92.6078 16.8833 91.2078 15.35C89.8411 13.7833 87.7411 13 84.9078 13C82.6078 13 80.6578 13.6167 79.0578 14.85C77.4911 16.05 76.4078 17.55 75.8078 19.35C75.1078 21.1833 74.1911 22.4 73.0578 23C71.9245 23.6 70.3078 23.7333 68.2078 23.4L60.0078 21.95C60.5411 18.3167 61.5578 15.15 63.0578 12.45C64.5911 9.75 66.4745 7.5 68.7078 5.7C70.9745 3.9 73.5578 2.56666 76.4578 1.7C79.3578 0.799997 82.4745 0.349998 85.8078 0.349998Z" fill="#232A32"/>
</svg>
