<svg width="111" height="75" viewBox="0 0 111 75" fill="none" xmlns="http://www.w3.org/2000/svg">
<path d="M54 37.55C54 43.9167 53.3167 49.4333 51.95 54.1C50.5833 58.7667 48.6833 62.6333 46.25 65.7C43.85 68.7667 40.9833 71.05 37.65 72.55C34.35 74.05 30.7667 74.8 26.9 74.8C23.0333 74.8 19.45 74.05 16.15 72.55C12.8833 71.05 10.05 68.7667 7.65 65.7C5.25 62.6333 3.36667 58.7667 2 54.1C0.666667 49.4333 1.41561e-07 43.9167 1.41561e-07 37.55C1.41561e-07 31.1833 0.666667 25.6667 2 21C3.36667 16.3333 5.25 12.4667 7.65 9.4C10.05 6.33333 12.8833 4.06666 16.15 2.6C19.45 1.1 23.0333 0.349998 26.9 0.349998C30.7667 0.349998 34.35 1.1 37.65 2.6C40.9833 4.06666 43.85 6.33333 46.25 9.4C48.6833 12.4667 50.5833 16.3333 51.95 21C53.3167 25.6667 54 31.1833 54 37.55ZM38 37.55C38 32.5167 37.6833 28.4 37.05 25.2C36.4167 21.9667 35.5667 19.4333 34.5 17.6C33.4667 15.7667 32.2833 14.5167 30.95 13.85C29.6167 13.15 28.2667 12.8 26.9 12.8C25.5333 12.8 24.1833 13.15 22.85 13.85C21.55 14.5167 20.3833 15.7667 19.35 17.6C18.35 19.4333 17.5333 21.9667 16.9 25.2C16.3 28.4 16 32.5167 16 37.55C16 42.6167 16.3 46.75 16.9 49.95C17.5333 53.15 18.35 55.6833 19.35 57.55C20.3833 59.3833 21.55 60.65 22.85 61.35C24.1833 62.0167 25.5333 62.35 26.9 62.35C28.2667 62.35 29.6167 62.0167 30.95 61.35C32.2833 60.65 33.4667 59.3833 34.5 57.55C35.5667 55.6833 36.4167 53.15 37.05 49.95C37.6833 46.75 38 42.6167 38 37.55ZM86.2078 0.349998C89.8078 0.349998 93.0078 0.866664 95.8078 1.9C98.6078 2.9 100.974 4.26666 102.908 6C104.841 7.73333 106.308 9.75 107.308 12.05C108.308 14.3167 108.808 16.7167 108.808 19.25C108.808 21.55 108.574 23.5833 108.108 25.35C107.641 27.0833 106.941 28.6 106.008 29.9C105.108 31.1667 103.974 32.25 102.608 33.15C101.274 34.05 99.7411 34.8 98.0078 35.4C106.074 38.2 110.108 43.6833 110.108 51.85C110.108 55.7167 109.408 59.0833 108.008 61.95C106.608 64.8167 104.724 67.2 102.358 69.1C100.024 71 97.3078 72.4333 94.2078 73.4C91.1078 74.3333 87.8745 74.8 84.5078 74.8C81.0411 74.8 77.9578 74.4333 75.2578 73.7C72.5578 72.9333 70.1578 71.7667 68.0578 70.2C65.9578 68.6 64.1078 66.5667 62.5078 64.1C60.9411 61.6333 59.5745 58.7 58.4078 55.3L65.3078 52.5C67.1078 51.8 68.7745 51.6167 70.3078 51.95C71.8411 52.2833 72.9411 53.05 73.6078 54.25C75.1078 57.0167 76.6911 59.0333 78.3578 60.3C80.0578 61.5333 82.0411 62.15 84.3078 62.15C86.0411 62.15 87.5411 61.8667 88.8078 61.3C90.1078 60.7 91.1745 59.95 92.0078 59.05C92.8745 58.1167 93.5245 57.0667 93.9578 55.9C94.3911 54.7333 94.6078 53.55 94.6078 52.35C94.6078 50.7833 94.4911 49.3833 94.2578 48.15C94.0578 46.8833 93.4578 45.8 92.4578 44.9C91.4578 44 89.9411 43.3167 87.9078 42.85C85.9078 42.35 83.1078 42.1 79.5078 42.1V31.4C82.5411 31.4 84.9911 31.1667 86.8578 30.7C88.7245 30.2333 90.1578 29.6 91.1578 28.8C92.1911 27.9667 92.8745 26.9667 93.2078 25.8C93.5411 24.6333 93.7078 23.35 93.7078 21.95C93.7078 19.0833 93.0078 16.8833 91.6078 15.35C90.2411 13.7833 88.1411 13 85.3078 13C83.0078 13 81.0578 13.6167 79.4578 14.85C77.8911 16.05 76.8078 17.55 76.2078 19.35C75.5078 21.1833 74.5911 22.4 73.4578 23C72.3245 23.6 70.7078 23.7333 68.6078 23.4L60.4078 21.95C60.9411 18.3167 61.9578 15.15 63.4578 12.45C64.9911 9.75 66.8745 7.5 69.1078 5.7C71.3745 3.9 73.9578 2.56666 76.8578 1.7C79.7578 0.799997 82.8745 0.349998 86.2078 0.349998Z" fill="#232A32"/>
</svg>
