<svg width="60" height="60" viewBox="0 0 60 60" fill="none" xmlns="http://www.w3.org/2000/svg">
<g clip-path="url(#clip0_34_365)">
<path d="M28.996 49C26.79 49 24.996 50.794 24.996 53C24.996 55.206 26.79 57 28.996 57C31.202 57 32.996 55.206 32.996 53C32.996 50.794 31.201 49 28.996 49ZM28.996 55C27.893 55 26.996 54.103 26.996 53C26.996 51.897 27.893 51 28.996 51C30.099 51 30.996 51.897 30.996 53C30.996 54.103 30.099 55 28.996 55Z" fill="white"/>
<path d="M25.996 5H29.996C30.548 5 30.996 4.553 30.996 4C30.996 3.447 30.548 3 29.996 3H25.996C25.444 3 24.996 3.447 24.996 4C24.996 4.553 25.443 5 25.996 5Z" fill="white"/>
<path d="M32.996 5H33.996C34.548 5 34.996 4.553 34.996 4C34.996 3.447 34.548 3 33.996 3H32.996C32.444 3 31.996 3.447 31.996 4C31.996 4.553 32.443 5 32.996 5Z" fill="white"/>
<path d="M4.19899 13.342L3.94599 12.398C3.80299 11.865 3.25699 11.546 2.72099 11.691C2.18799 11.835 1.87099 12.382 2.01399 12.916L2.26699 13.86C2.38699 14.307 2.79099 14.601 3.23199 14.601C3.31699 14.601 3.40499 14.59 3.49199 14.567C4.02499 14.423 4.34199 13.875 4.19899 13.342Z" fill="white"/>
<path d="M2.106 9.86296C2.656 9.80996 3.059 9.32196 3.006 8.77296C2.998 8.69196 2.994 8.61296 2.994 8.53196C2.994 8.37996 3.009 8.22896 3.036 8.08296C3.14199 7.53996 2.786 7.01696 2.244 6.91196C1.703 6.81296 1.178 7.16396 1.074 7.70596C1.021 7.98096 0.994995 8.26096 0.994995 8.53396C0.994995 8.67596 1.002 8.81896 1.016 8.96396C1.065 9.47996 1.5 9.86796 2.01 9.86796C2.042 9.86796 2.074 9.86696 2.106 9.86296Z" fill="white"/>
<path d="M6.72899 22.788L6.47599 21.843C6.33299 21.31 5.78599 20.989 5.25199 21.136C4.71799 21.279 4.40099 21.826 4.54399 22.361L4.79699 23.306C4.91699 23.752 5.31999 24.047 5.76199 24.047C5.84699 24.047 5.93399 24.036 6.02099 24.013C6.55599 23.87 6.87299 23.322 6.72899 22.788Z" fill="white"/>
<path d="M11.792 41.6799L11.539 40.7359C11.396 40.2019 10.849 39.8819 10.314 40.0289C9.781 40.1729 9.464 40.7199 9.607 41.2539L9.86 42.1979C9.98 42.6449 10.384 42.9389 10.825 42.9389C10.91 42.9389 10.998 42.9279 11.085 42.9049C11.619 42.7609 11.935 42.2129 11.792 41.6799Z" fill="white"/>
<path d="M5.46399 18.064L5.21099 17.12C5.06799 16.586 4.52099 16.266 3.98599 16.413C3.45299 16.557 3.13599 17.104 3.27899 17.638L3.53199 18.582C3.65199 19.029 4.05599 19.323 4.49699 19.323C4.58199 19.323 4.66999 19.312 4.75699 19.289C5.29099 19.146 5.60699 18.598 5.46399 18.064Z" fill="white"/>
<path d="M4.61499 6.22291C4.69999 6.22291 4.78699 6.21191 4.87399 6.18891L5.81899 5.93591C6.35199 5.79291 6.66899 5.24591 6.52599 4.71091C6.38299 4.17791 5.83699 3.85491 5.30099 4.00391L4.35599 4.25691C3.82299 4.39991 3.50599 4.94691 3.64899 5.48191C3.76899 5.92791 4.17299 6.22291 4.61499 6.22291Z" fill="white"/>
<path d="M9.338 4.95593C9.423 4.95593 9.51 4.94493 9.597 4.92193L10.541 4.66893C11.074 4.52593 11.391 3.97793 11.248 3.44393C11.105 2.90993 10.56 2.58993 10.024 2.73693L9.08 2.98993C8.547 3.13293 8.23 3.68093 8.373 4.21493C8.492 4.66093 8.896 4.95593 9.338 4.95593Z" fill="white"/>
<path d="M10.526 36.9569L10.273 36.0119C10.13 35.4789 9.582 35.1609 9.048 35.3049C8.514 35.4479 8.198 35.9959 8.341 36.5299L8.594 37.4749C8.714 37.9219 9.118 38.2159 9.559 38.2159C9.644 38.2159 9.732 38.2049 9.818 38.1819C10.353 38.0389 10.669 37.4899 10.526 36.9569Z" fill="white"/>
<path d="M7.995 27.5109L7.742 26.5669C7.599 26.0349 7.052 25.7149 6.517 25.8599C5.984 26.0029 5.667 26.5509 5.81 27.0849L6.063 28.0289C6.183 28.4749 6.586 28.7699 7.028 28.7699C7.113 28.7699 7.2 28.7589 7.287 28.7359C7.821 28.5929 8.138 28.0439 7.995 27.5109Z" fill="white"/>
<path d="M9.26099 32.2329L9.00799 31.2889C8.86499 30.7559 8.31799 30.4339 7.78299 30.5819C7.24999 30.7249 6.93299 31.2729 7.07599 31.8069L7.32899 32.7509C7.44899 33.1969 7.85199 33.4919 8.29399 33.4919C8.37899 33.4919 8.46599 33.4809 8.55299 33.4579C9.08699 33.3149 9.40399 32.7669 9.26099 32.2329Z" fill="white"/>
<path d="M56.015 16.4141C55.479 16.2681 54.933 16.5871 54.79 17.1211L54.537 18.0651C54.394 18.5981 54.71 19.1461 55.244 19.2901C55.331 19.3131 55.418 19.3241 55.504 19.3241C55.945 19.3241 56.35 19.0301 56.469 18.5831L56.722 17.6391C56.864 17.1051 56.548 16.5581 56.015 16.4141Z" fill="white"/>
<path d="M57.279 11.6901C56.742 11.5441 56.197 11.8651 56.054 12.3971L55.801 13.3411C55.658 13.8741 55.975 14.4231 56.508 14.5661C56.595 14.5891 56.682 14.6001 56.767 14.6001C57.209 14.6001 57.613 14.3051 57.732 13.8591L57.985 12.9151C58.129 12.3821 57.813 11.8331 57.279 11.6901Z" fill="white"/>
<path d="M58.926 7.70688C58.823 7.16588 58.302 6.81488 57.756 6.91288C57.214 7.01688 56.858 7.54088 56.962 8.08388C56.99 8.22988 57.005 8.38088 57.004 8.53388C57.004 8.61388 57 8.69288 56.992 8.77288C56.94 9.32288 57.343 9.81088 57.892 9.86388C57.924 9.86788 57.956 9.86888 57.988 9.86888C58.498 9.86888 58.933 9.48088 58.983 8.96488C58.997 8.81988 59.004 8.67688 59.004 8.53588C59.005 8.26088 58.979 7.98188 58.926 7.70688Z" fill="white"/>
<path d="M49.459 4.66911L50.403 4.92211C50.49 4.94511 50.577 4.95611 50.662 4.95611C51.104 4.95611 51.508 4.66111 51.627 4.21511C51.77 3.68211 51.453 3.13311 50.92 2.99011L49.976 2.73711C49.438 2.59011 48.894 2.91111 48.751 3.44411C48.609 3.97811 48.926 4.52611 49.459 4.66911Z" fill="white"/>
<path d="M54.182 5.93605L55.127 6.18905C55.214 6.21205 55.301 6.22305 55.386 6.22305C55.828 6.22305 56.232 5.92805 56.351 5.48205C56.494 4.94805 56.177 4.40005 55.644 4.25705L54.699 4.00405C54.163 3.85605 53.616 4.17805 53.474 4.71105C53.332 5.24505 53.648 5.79305 54.182 5.93605Z" fill="white"/>
<path d="M54.749 21.1371C54.214 20.9941 53.666 21.3111 53.524 21.8441L53.271 22.7881C53.128 23.3211 53.444 23.8691 53.978 24.0131C54.065 24.0361 54.152 24.0471 54.238 24.0471C54.679 24.0471 55.084 23.7531 55.203 23.3061L55.456 22.3621C55.599 21.8281 55.282 21.2801 54.749 21.1371Z" fill="white"/>
<path d="M48.421 44.751C47.889 44.609 47.339 44.924 47.196 45.458L47.005 46.17V45.998C47.005 45.981 46.996 45.967 46.995 45.95V42.135C46.996 42.118 47.005 42.104 47.005 42.087V41.109C47.005 41.092 46.996 41.078 46.995 41.061V37.246C46.996 37.229 47.005 37.215 47.005 37.198V36.22C47.005 36.203 46.996 36.189 46.995 36.172V32.357C46.996 32.34 47.005 32.326 47.005 32.309V31.331C47.005 31.314 46.996 31.3 46.995 31.283V27.468C46.996 27.451 47.005 27.437 47.005 27.42V26.442C47.005 26.425 46.996 26.411 46.995 26.394V22.579C46.996 22.562 47.005 22.548 47.005 22.531V21.55C47.005 21.533 46.996 21.519 46.995 21.502V17.687C46.996 17.67 47.005 17.656 47.005 17.639V16.66C47.005 16.643 46.996 16.629 46.995 16.612V12.798C46.996 12.781 47.005 12.767 47.005 12.75V11.771C47.005 11.754 46.996 11.74 46.995 11.723V7.908C46.996 7.891 47.005 7.877 47.005 7.86V6.881C47.005 6.864 46.996 6.85 46.995 6.833V4.405C46.996 1.977 45.02 0 42.59 0H17.401C14.972 0 12.996 1.977 12.996 4.405V6.879V6.881V7.859V7.861V11.768V11.77V12.748V12.75V16.656V16.658V17.637V17.639V21.545V21.547V22.526V22.528V26.434V26.436V27.415V27.417V31.323V31.325V32.304V32.306V36.212V36.214V37.193V37.195V41.101V41.103V42.081V42.083V45.99V45.992V46.164L12.805 45.452C12.662 44.919 12.115 44.597 11.58 44.745C11.047 44.888 10.73 45.436 10.873 45.97L11.126 46.914C11.269 47.446 11.814 47.767 12.351 47.621C12.648 47.542 12.875 47.336 12.997 47.079V49.452C12.947 49.458 12.897 49.454 12.847 49.468C12.314 49.611 11.997 50.159 12.14 50.693L12.393 51.637C12.478 51.955 12.712 52.189 12.997 52.301V55.589C12.997 58.018 14.973 59.994 17.402 59.994H42.59C45.019 59.994 46.995 58.017 46.995 55.589V52.306C47.285 52.196 47.523 51.961 47.609 51.638L47.862 50.694C48.005 50.161 47.688 49.612 47.155 49.469C47.101 49.455 47.049 49.458 46.995 49.453V47.089C46.996 47.084 46.999 47.08 46.999 47.074C47.119 47.335 47.35 47.542 47.649 47.622C48.183 47.765 48.731 47.449 48.874 46.915L49.127 45.97C49.271 45.442 48.955 44.894 48.421 44.751ZM14.996 8H44.996V46H14.996V8ZM17.401 2H42.59C43.916 2 44.995 3.079 44.995 4.405V6H14.995V4.405C14.996 3.079 16.075 2 17.401 2ZM42.59 58H17.401C16.075 58 14.996 56.921 14.996 55.595V48H44.996V55.595C44.996 56.921 43.917 58 42.59 58Z" fill="white"/>
<path d="M50.952 35.306C50.415 35.159 49.87 35.48 49.727 36.013L49.474 36.957C49.331 37.49 49.648 38.039 50.181 38.182C50.268 38.205 50.355 38.216 50.44 38.216C50.882 38.216 51.286 37.921 51.405 37.475L51.658 36.531C51.802 35.997 51.485 35.448 50.952 35.306Z" fill="white"/>
<path d="M49.687 40.0281C49.15 39.8821 48.605 40.2011 48.462 40.7351L48.209 41.6791C48.066 42.2121 48.382 42.7601 48.916 42.9041C49.003 42.9271 49.09 42.9381 49.176 42.9381C49.617 42.9381 50.022 42.6441 50.141 42.1971L50.394 41.2531C50.537 40.7201 50.22 40.1721 49.687 40.0281Z" fill="white"/>
<path d="M52.217 30.5819C51.683 30.4339 51.135 30.7559 50.993 31.2889L50.74 32.2339C50.597 32.7679 50.914 33.3159 51.448 33.4589C51.534 33.4819 51.621 33.4929 51.707 33.4929C52.149 33.4929 52.553 33.1979 52.672 32.7519L52.925 31.8069C53.067 31.2719 52.75 30.7249 52.217 30.5819Z" fill="white"/>
<path d="M53.483 25.8589C52.946 25.7139 52.401 26.0339 52.258 26.5659L52.005 27.5099C51.862 28.0429 52.179 28.5919 52.712 28.7349C52.799 28.7579 52.886 28.7689 52.971 28.7689C53.413 28.7689 53.817 28.4739 53.936 28.0279L54.189 27.0839C54.333 26.5509 54.016 26.0019 53.483 25.8589Z" fill="white"/>
</g>
<defs>
<clipPath id="clip0_34_365">
<rect width="60" height="60" fill="white"/>
</clipPath>
</defs>
</svg>
