<svg width="48" height="60" viewBox="0 0 48 60" fill="none" xmlns="http://www.w3.org/2000/svg">
<path d="M35.4539 39.8581H12.8865C12.4298 39.9329 12.0718 40.2909 11.997 40.7476C11.9007 41.3352 12.2989 41.8895 12.8865 41.9858H35.4539C35.5693 42.0047 35.687 42.0047 35.8025 41.9858C36.39 41.8895 36.7883 41.3352 36.692 40.7476C36.5957 40.1601 36.0415 39.7618 35.4539 39.8581Z" fill="white"/>
<path d="M35.4539 18.0427H12.8865C12.4298 18.1175 12.0718 18.4755 11.997 18.9322C11.9007 19.5198 12.2989 20.0741 12.8865 20.1703H35.4539C35.5693 20.1893 35.687 20.1893 35.8025 20.1703C36.39 20.0741 36.7883 19.5198 36.692 18.9322C36.5957 18.3446 36.0415 17.9464 35.4539 18.0427Z" fill="white"/>
<path d="M35.4539 34.4042H12.8865C12.4298 34.4791 12.0718 34.8371 11.997 35.2938C11.9007 35.8814 12.2989 36.4356 12.8865 36.5319H35.4539C35.5693 36.5509 35.687 36.5509 35.8025 36.5319C36.39 36.4356 36.7883 35.8814 36.692 35.2938C36.5957 34.7062 36.0415 34.308 35.4539 34.4042Z" fill="white"/>
<path d="M35.0142 0.333333C34.8112 0.124645 34.5323 0.00691489 34.2411 0.0070922H6.01418V0C3.20745 0.00390071 0.932978 2.27837 0.929077 5.08511V54.9149C0.932978 57.7216 3.20745 59.9961 6.01418 60H41.9858C44.7926 59.9961 47.067 57.7216 47.0709 54.9149V13.156V13.1064V13.0567V12.9787V12.539V12.3901L35.0142 0.333333ZM35.3191 3.69504L43.7234 12.0993H37.5816C36.3353 12.0915 35.327 11.0832 35.3191 9.83688V3.69504ZM45.2482 54.9149C45.2404 56.5254 43.9367 57.8291 42.3262 57.8369H6.01418C4.40372 57.8291 3.1 56.5254 3.0922 54.9149V5.08511C3.1 3.47465 4.40372 2.17092 6.01418 2.16312H33.156V9.80142C33.1599 12.244 35.139 14.223 37.5816 14.227H45.2482V54.9149Z" fill="white"/>
<path d="M35.4539 23.4965H12.8865C12.7711 23.4776 12.6534 23.4776 12.5379 23.4965C11.9503 23.5928 11.5521 24.1471 11.6484 24.7346C11.7447 25.3222 12.2989 25.7205 12.8865 25.6242H35.4539C35.5693 25.6432 35.687 25.6432 35.8025 25.6242C36.3901 25.5279 36.7883 24.9737 36.692 24.3861C36.5957 23.7985 36.0415 23.4003 35.4539 23.4965Z" fill="white"/>
<path d="M35.4539 28.9504H12.8865C12.4298 29.0252 12.0718 29.3832 11.997 29.8399C11.9007 30.4275 12.2989 30.9818 12.8865 31.078H35.4539C35.5693 31.097 35.687 31.097 35.8025 31.078C36.39 30.9818 36.7883 30.4275 36.692 29.8399C36.5957 29.2523 36.0415 28.8541 35.4539 28.9504Z" fill="white"/>
</svg>
