<svg width="15" height="25" viewBox="0 0 15 25" fill="none" xmlns="http://www.w3.org/2000/svg">
<path d="M13.256 0H1.74405C0.784969 0 0 0.759286 0 1.68857V23.3107C0 24.24 0.784969 25 1.74405 25H13.256C14.215 25 15 24.2414 15 23.3114V1.68857C15 0.759286 14.215 0 13.256 0ZM5.65857 1.21714H9.34143C9.458 1.21714 9.55243 1.30857 9.55243 1.42214C9.55243 1.535 9.458 1.62643 9.34143 1.62643H5.65857C5.542 1.62643 5.44757 1.535 5.44757 1.42214C5.44757 1.30857 5.542 1.21714 5.65857 1.21714ZM7.5 24.1557C7.01825 24.1557 6.62798 23.7779 6.62798 23.3107C6.62798 22.8436 7.01825 22.4664 7.5 22.4664C7.98175 22.4664 8.37202 22.8436 8.37202 23.3107C8.37202 23.7779 7.98175 24.1557 7.5 24.1557ZM13.7864 21.875H1.2136V2.67786H13.7864V21.875Z" fill="#F8BE4D"/>
</svg>
