<svg width="238" height="69" viewBox="0 0 238 69" fill="none" xmlns="http://www.w3.org/2000/svg">
<g clip-path="url(#clip0_6_3)">
<path d="M92.1953 20.9974C93.4924 21.3722 94.5574 21.8242 95.3904 22.3596C96.2234 22.8949 96.9612 23.4303 97.6038 23.9597C98.2464 24.495 98.7105 24.9471 98.9842 25.3099L99.4245 25.881L95.7058 29.5986C95.6284 29.4975 95.5273 29.3548 95.3904 29.1704C95.2595 28.986 94.9561 28.6707 94.492 28.2246C94.0279 27.7785 93.5221 27.3859 92.9747 27.0468C92.4273 26.7137 91.7074 26.3985 90.8208 26.1129C89.9283 25.8274 89.0239 25.6847 88.0898 25.6847C85.5313 25.6847 83.3952 26.5412 81.6816 28.2603C79.968 29.9793 79.1053 32.1147 79.1053 34.6666C79.1053 37.2243 79.968 39.3598 81.6816 41.0729C83.4012 42.7919 85.5372 43.6485 88.0898 43.6485C89.0834 43.6485 90.0295 43.5116 90.9458 43.238C91.8561 42.9644 92.6058 42.6432 93.2068 42.2685C93.8018 41.8937 94.3313 41.513 94.7895 41.1323C95.2476 40.7516 95.5808 40.4185 95.7831 40.139L96.0866 39.7404L99.6149 43.4581C99.5138 43.6128 99.3531 43.8091 99.1449 44.0589C98.9307 44.3087 98.4725 44.7429 97.7526 45.3735C97.0326 46.004 96.2651 46.5572 95.444 47.033C94.6229 47.5089 93.5519 47.9491 92.2191 48.3416C90.8922 48.7342 89.5118 48.9365 88.0898 48.9365C83.9188 48.9365 80.4024 47.5386 77.5345 44.7489C74.6666 41.9591 73.2326 38.5984 73.2326 34.6725C73.2326 30.7466 74.6666 27.3859 77.5345 24.6021C80.4024 21.8183 83.9188 20.4204 88.0898 20.4204C89.5297 20.4383 90.8982 20.6227 92.1953 20.9974Z" fill="white"/>
<path d="M126.211 21.0093V26.2914H118.411V48.3535H112.55V26.2914H104.732V21.0093H126.211Z" fill="white"/>
<path d="M136.796 41.9115L134.446 48.3595H128.187L138.944 21.0093H145.18L155.95 48.3595H149.69L147.346 41.9115H136.796ZM142.08 27.8558L138.742 36.8377H145.4L142.08 27.8558Z" fill="white"/>
<path d="M179.035 21.0093V26.2914H171.235V48.3535H165.374V26.2914H157.556V21.0093H179.035Z" fill="white"/>
<path d="M194.321 39.6869L184.706 21.0093H190.941L197.391 33.8992L202.865 21.0093H209.488L196.624 48.3595H190.162L194.321 39.6869Z" fill="white"/>
<path d="M230.58 20.9974C231.877 21.3722 232.943 21.8242 233.776 22.3596C234.609 22.8949 235.346 23.4303 235.989 23.9597C236.632 24.495 237.09 24.9471 237.369 25.3099L237.81 25.881L234.091 29.5986C234.014 29.4975 233.912 29.3548 233.776 29.1704C233.645 28.986 233.347 28.6707 232.877 28.2246C232.413 27.7785 231.907 27.3859 231.36 27.0468C230.812 26.7137 230.092 26.3985 229.206 26.1129C228.313 25.8274 227.403 25.6847 226.475 25.6847C223.922 25.6847 221.78 26.5412 220.067 28.2603C218.347 29.9793 217.49 32.1147 217.49 34.6666C217.49 37.2243 218.347 39.3598 220.067 41.0729C221.786 42.7919 223.922 43.6485 226.475 43.6485C227.469 43.6485 228.421 43.5116 229.331 43.238C230.241 42.9644 230.997 42.6432 231.592 42.2685C232.187 41.8937 232.716 41.513 233.175 41.1323C233.633 40.7516 233.966 40.4185 234.168 40.139L234.472 39.7404L238 43.4581C237.899 43.6128 237.738 43.8091 237.53 44.0589C237.316 44.3087 236.852 44.7429 236.138 45.3735C235.418 46.004 234.65 46.5572 233.829 47.033C233.014 47.5089 231.937 47.9491 230.604 48.3416C229.271 48.7342 227.897 48.9365 226.475 48.9365C222.304 48.9365 218.782 47.5386 215.914 44.7489C213.046 41.9591 211.612 38.5984 211.612 34.6725C211.612 30.7466 213.046 27.3859 215.914 24.6021C218.782 21.8183 222.304 20.4204 226.475 20.4204C227.915 20.4383 229.283 20.6227 230.58 20.9974Z" fill="white"/>
<path d="M75.4341 62.0762C75.922 62.0762 76.3325 62.2368 76.6657 62.558C76.993 62.8792 77.1596 63.2718 77.1596 63.7299C77.1596 64.1879 76.993 64.5805 76.6657 64.9017C76.3325 65.2229 75.922 65.3835 75.4341 65.3835H74.1905V67.2155H73.3813V62.0762H75.4341ZM74.1905 62.8079V64.6459H75.4341C75.6899 64.6459 75.9041 64.5567 76.0826 64.3782C76.2611 64.2057 76.3504 63.9856 76.3504 63.7239C76.3504 63.4681 76.2611 63.248 76.0826 63.0696C75.9041 62.8911 75.6899 62.8019 75.4341 62.8019H74.1905V62.8079Z" fill="white"/>
<path d="M82.7704 66.478V67.2155H79.0636V62.0762H82.699V62.8079H79.8728V64.17H82.11V64.9017H79.8728V66.478H82.7704Z" fill="white"/>
<path d="M84.5971 62.0762H87.8994V62.8079H85.4063V67.2155H84.5971V62.0762Z" fill="white"/>
<path d="M92.9985 67.2155V63.5098L90.1365 67.2155H89.4404V62.0762H90.2436V65.782L93.1116 62.0762H93.8077V67.2155H92.9985Z" fill="white"/>
<path d="M99.1746 62.106C99.4126 62.1714 99.6089 62.2547 99.7696 62.3558C99.9302 62.4569 100.061 62.5521 100.18 62.6473C100.299 62.7424 100.382 62.8257 100.442 62.8911L100.519 62.9923L100.008 63.5098C99.9957 63.4919 99.9719 63.4622 99.9481 63.4265C99.9183 63.3908 99.8588 63.3313 99.7577 63.2421C99.6625 63.1529 99.5554 63.0696 99.4423 63.0042C99.3293 62.9387 99.1865 62.8792 99.002 62.8198C98.8235 62.7662 98.6272 62.7365 98.4308 62.7365C97.8953 62.7365 97.4491 62.9209 97.0742 63.2897C96.7053 63.6585 96.5209 64.1105 96.5209 64.6399C96.5209 65.1753 96.7053 65.6214 97.0742 65.9961C97.4431 66.3649 97.8953 66.5493 98.4308 66.5493C98.6331 66.5493 98.8235 66.5196 99.008 66.4661C99.1924 66.4125 99.3412 66.3411 99.4661 66.2638C99.5851 66.1865 99.6923 66.1032 99.7875 66.0318C99.8767 65.9545 99.9481 65.8891 99.9957 65.8296L100.055 65.7404L100.573 66.2579C100.555 66.2876 100.525 66.3233 100.484 66.3709C100.442 66.4185 100.353 66.4958 100.222 66.6207C100.085 66.7337 99.9421 66.8348 99.7934 66.93C99.6387 67.0192 99.4423 67.1025 99.1984 67.1739C98.9544 67.2453 98.7045 67.281 98.4427 67.281C97.6752 67.281 97.0326 67.0252 96.509 66.5136C95.9854 66.0021 95.7236 65.3775 95.7236 64.6399C95.7236 63.9023 95.9854 63.2778 96.509 62.7662C97.0326 62.2547 97.6752 61.9989 98.4427 61.9989C98.6867 62.0048 98.9366 62.0346 99.1746 62.106Z" fill="white"/>
<path d="M105.612 62.0762V62.8079H104.065V67.2155H103.262V62.8079H101.721V62.0762H105.612Z" fill="white"/>
<path d="M109.278 62.0762C109.766 62.0762 110.176 62.2368 110.509 62.558C110.843 62.8792 111.003 63.2718 111.003 63.7299C111.003 64.1879 110.837 64.5805 110.509 64.9017C110.182 65.2229 109.766 65.3835 109.278 65.3835H108.028V67.2155H107.219V62.0762H109.278ZM108.028 62.8079V64.6459H109.278C109.534 64.6459 109.748 64.5567 109.926 64.3782C110.105 64.2057 110.194 63.9856 110.194 63.7239C110.194 63.4681 110.105 63.248 109.926 63.0696C109.748 62.8911 109.534 62.8019 109.278 62.8019H108.028V62.8079Z" fill="white"/>
<path d="M114.008 62.0762H114.811L116.941 67.2155H116.096L115.543 65.8593H113.27L112.717 67.2155H111.872L114.008 62.0762ZM113.562 65.1218H115.251L114.407 62.9923L113.562 65.1218Z" fill="white"/>
<path d="M121.41 62.0762V62.8079H119.869V67.2155H119.059V62.8079H117.518V62.0762H121.41Z" fill="white"/>
<path d="M123.219 62.7722C123.742 62.2606 124.385 62.0049 125.152 62.0049C125.92 62.0049 126.562 62.2606 127.086 62.7722C127.61 63.2837 127.871 63.9083 127.871 64.6459C127.871 65.3835 127.61 66.008 127.086 66.5196C126.562 67.0312 125.92 67.2869 125.152 67.2869C124.385 67.2869 123.736 67.0312 123.219 66.5196C122.695 66.008 122.439 65.3835 122.439 64.6459C122.433 63.9083 122.695 63.2837 123.219 62.7722ZM123.796 65.9961C124.165 66.3649 124.617 66.5493 125.152 66.5493C125.688 66.5493 126.134 66.3649 126.509 65.9961C126.878 65.6274 127.062 65.1753 127.062 64.6399C127.062 64.1046 126.878 63.6585 126.509 63.2897C126.14 62.9209 125.688 62.7365 125.152 62.7365C124.617 62.7365 124.165 62.9209 123.796 63.2897C123.427 63.6585 123.242 64.1105 123.242 64.6399C123.242 65.1753 123.427 65.6274 123.796 65.9961Z" fill="white"/>
<path d="M131.822 62.0762C132.31 62.0762 132.721 62.2368 133.054 62.558C133.381 62.8792 133.548 63.2718 133.548 63.7299C133.548 64.1879 133.381 64.5805 133.054 64.9017C132.721 65.2229 132.31 65.3835 131.822 65.3835H130.579V67.2155H129.77V62.0762H131.822ZM130.579 62.8079V64.6459H131.822C132.078 64.6459 132.292 64.5567 132.471 64.3782C132.649 64.2057 132.739 63.9856 132.739 63.7239C132.739 63.4681 132.649 63.248 132.471 63.0696C132.292 62.8911 132.078 62.8019 131.822 62.8019H130.579V62.8079Z" fill="white"/>
<path d="M138.623 62.106C138.861 62.1714 139.057 62.2547 139.218 62.3558C139.379 62.4569 139.51 62.5521 139.629 62.6473C139.748 62.7424 139.831 62.8257 139.885 62.8911L139.962 62.9923L139.45 63.5098C139.438 63.4919 139.414 63.4622 139.391 63.4265C139.361 63.3908 139.301 63.3313 139.2 63.2421C139.105 63.1529 138.998 63.0696 138.885 63.0042C138.772 62.9387 138.623 62.8792 138.445 62.8198C138.266 62.7662 138.076 62.7365 137.873 62.7365C137.338 62.7365 136.892 62.9209 136.517 63.2897C136.148 63.6585 135.963 64.1105 135.963 64.6399C135.963 65.1753 136.148 65.6214 136.517 65.9961C136.886 66.3649 137.338 66.5493 137.873 66.5493C138.076 66.5493 138.266 66.5196 138.451 66.4661C138.635 66.4125 138.784 66.3411 138.909 66.2638C139.028 66.1865 139.135 66.1032 139.23 66.0318C139.319 65.9545 139.391 65.8891 139.438 65.8296L139.498 65.7404L140.015 66.2579C139.998 66.2876 139.968 66.3233 139.926 66.3709C139.885 66.4185 139.801 66.4958 139.664 66.6207C139.528 66.7337 139.385 66.8348 139.236 66.93C139.081 67.0192 138.885 67.1025 138.641 67.1739C138.397 67.2453 138.147 67.281 137.885 67.281C137.118 67.281 136.469 67.0252 135.952 66.5136C135.428 66.0021 135.172 65.3775 135.172 64.6399C135.172 63.9023 135.434 63.2778 135.952 62.7662C136.475 62.2547 137.118 61.9989 137.885 61.9989C138.135 62.0048 138.385 62.0346 138.623 62.106Z" fill="white"/>
<path d="M142.562 64.5745L144.877 62.0762H145.906L143.925 64.2057L146.055 67.2155H145.061L143.371 64.7886L142.562 65.669V67.2155H141.759V62.0762H142.562V64.5745Z" fill="white"/>
<path d="M147.78 62.7722C148.304 62.2606 148.946 62.0049 149.714 62.0049C150.481 62.0049 151.124 62.2606 151.648 62.7722C152.171 63.2837 152.433 63.9083 152.433 64.6459C152.433 65.3835 152.171 66.008 151.648 66.5196C151.124 67.0312 150.481 67.2869 149.714 67.2869C148.946 67.2869 148.304 67.0312 147.78 66.5196C147.257 66.008 147.001 65.3835 147.001 64.6459C147.001 63.9083 147.257 63.2837 147.78 62.7722ZM148.357 65.9961C148.726 66.3649 149.178 66.5493 149.714 66.5493C150.249 66.5493 150.702 66.3649 151.071 65.9961C151.439 65.6274 151.624 65.1753 151.624 64.6399C151.624 64.1046 151.439 63.6585 151.071 63.2897C150.702 62.9209 150.249 62.7365 149.714 62.7365C149.178 62.7365 148.726 62.9209 148.357 63.2897C147.988 63.6585 147.804 64.1105 147.804 64.6399C147.804 65.1753 147.988 65.6274 148.357 65.9961Z" fill="white"/>
<path d="M158.038 66.478V67.2155H154.331V62.0762H157.973V62.8079H155.14V64.17H157.383V64.9017H155.14V66.478H158.038Z" fill="white"/>
<path d="M162.554 62.7722C163.078 62.2606 163.72 62.0049 164.488 62.0049C165.255 62.0049 165.898 62.2606 166.422 62.7722C166.945 63.2837 167.207 63.9083 167.207 64.6459C167.207 65.3835 166.945 66.008 166.422 66.5196C165.904 67.0312 165.255 67.2869 164.488 67.2869C163.72 67.2869 163.072 67.0312 162.554 66.5196C162.03 66.008 161.775 65.3835 161.775 64.6459C161.775 63.9083 162.03 63.2837 162.554 62.7722ZM163.137 65.9961C163.506 66.3649 163.958 66.5493 164.494 66.5493C165.029 66.5493 165.475 66.3649 165.85 65.9961C166.219 65.6274 166.404 65.1753 166.404 64.6399C166.404 64.1046 166.219 63.6585 165.85 63.2897C165.481 62.9209 165.029 62.7365 164.494 62.7365C163.958 62.7365 163.506 62.9209 163.137 63.2897C162.768 63.6585 162.584 64.1105 162.584 64.6399C162.578 65.1753 162.762 65.6274 163.137 65.9961Z" fill="white"/>
<path d="M169.105 67.2155V62.0762H172.485V62.8079H169.914V64.057H171.235C171.711 64.057 172.104 64.2117 172.419 64.515C172.734 64.8184 172.889 65.1931 172.889 65.6393C172.889 66.0854 172.734 66.4601 172.419 66.7635C172.104 67.0668 171.711 67.2155 171.235 67.2155H169.105ZM171.235 66.478C171.473 66.478 171.675 66.4006 171.836 66.2341C171.997 66.0735 172.08 65.8712 172.08 65.6333C172.08 65.3954 171.997 65.1931 171.836 65.0325C171.675 64.8719 171.473 64.7886 171.235 64.7886H169.914V66.478H171.235Z" fill="white"/>
<path d="M180.957 66.478H181.582V68.316H180.773V67.2155H174.787V62.0762H175.596V66.478H177.471V62.0762H178.28V66.478H180.148V62.0762H180.957V66.478Z" fill="white"/>
<path d="M186.967 66.478V67.2155H183.26V62.0762H186.895V62.8079H184.069V64.17H186.306V64.9017H184.069V66.478H186.967Z" fill="white"/>
<path d="M191.822 62.106C192.06 62.1714 192.256 62.2547 192.417 62.3558C192.572 62.4569 192.709 62.5521 192.828 62.6473C192.947 62.7424 193.03 62.8257 193.083 62.8911L193.161 62.9923L192.649 63.5098C192.637 63.4919 192.613 63.4622 192.59 63.4265C192.56 63.3908 192.5 63.3313 192.399 63.2421C192.304 63.1529 192.197 63.0696 192.084 63.0042C191.971 62.9387 191.822 62.8792 191.644 62.8198C191.465 62.7662 191.275 62.7365 191.072 62.7365C190.537 62.7365 190.091 62.9209 189.716 63.2897C189.347 63.6585 189.162 64.1105 189.162 64.6399C189.162 65.1753 189.347 65.6214 189.716 65.9961C190.085 66.3649 190.537 66.5493 191.072 66.5493C191.275 66.5493 191.465 66.5196 191.649 66.4661C191.834 66.4125 191.983 66.3411 192.108 66.2638C192.227 66.1865 192.334 66.1032 192.429 66.0318C192.518 65.9545 192.59 65.8891 192.637 65.8296L192.697 65.7404L193.214 66.2579C193.196 66.2876 193.161 66.3233 193.125 66.3709C193.083 66.4185 193 66.4958 192.863 66.6207C192.726 66.7337 192.584 66.8348 192.435 66.93C192.28 67.0192 192.084 67.1025 191.84 67.1739C191.596 67.2453 191.346 67.281 191.084 67.281C190.317 67.281 189.668 67.0252 189.15 66.5136C188.627 66.0021 188.371 65.3775 188.371 64.6399C188.371 63.9023 188.633 63.2778 189.15 62.7662C189.674 62.2547 190.317 61.9989 191.084 61.9989C191.334 62.0048 191.578 62.0346 191.822 62.106Z" fill="white"/>
<path d="M198.254 62.0762V62.8079H196.713V67.2155H195.91V62.8079H194.369V62.0762H198.254Z" fill="white"/>
<path d="M199.866 67.2155V62.0762H201.955C202.371 62.0762 202.728 62.213 203.02 62.4867C203.317 62.7603 203.46 63.0755 203.46 63.4324C203.46 63.6406 203.419 63.825 203.335 63.9975C203.252 64.17 203.169 64.289 203.085 64.3544L202.955 64.4615C202.972 64.4674 203.002 64.4853 203.038 64.5091C203.073 64.5329 203.133 64.5805 203.228 64.6578C203.317 64.7351 203.395 64.8184 203.46 64.9076C203.526 64.9968 203.585 65.1158 203.645 65.2586C203.704 65.4013 203.728 65.556 203.728 65.7106C203.728 66.1211 203.567 66.478 203.252 66.7694C202.937 67.0668 202.544 67.2155 202.074 67.2155H199.866ZM200.676 62.7722V64.1641H201.961C202.163 64.1641 202.33 64.0986 202.461 63.9678C202.592 63.8369 202.663 63.6704 202.663 63.4681C202.663 63.2659 202.597 63.0993 202.461 62.9685C202.33 62.8376 202.163 62.7722 201.961 62.7722H200.676ZM202.068 66.5136C202.306 66.5136 202.508 66.4304 202.669 66.2698C202.83 66.1092 202.913 65.9069 202.913 65.669C202.913 65.4311 202.83 65.2288 202.669 65.0682C202.508 64.9076 202.306 64.8243 202.068 64.8243H200.676V66.5136H202.068Z" fill="white"/>
<path d="M206.108 62.7722C206.632 62.2606 207.274 62.0049 208.042 62.0049C208.809 62.0049 209.458 62.2606 209.976 62.7722C210.499 63.2837 210.761 63.9083 210.761 64.6459C210.761 65.3835 210.499 66.008 209.976 66.5196C209.458 67.0312 208.809 67.2869 208.042 67.2869C207.274 67.2869 206.632 67.0312 206.108 66.5196C205.584 66.008 205.329 65.3835 205.329 64.6459C205.329 63.9083 205.584 63.2837 206.108 62.7722ZM206.685 65.9961C207.054 66.3649 207.506 66.5493 208.042 66.5493C208.577 66.5493 209.029 66.3649 209.398 65.9961C209.767 65.6274 209.952 65.1753 209.952 64.6399C209.952 64.1046 209.767 63.6585 209.398 63.2897C209.029 62.9209 208.577 62.7365 208.042 62.7365C207.506 62.7365 207.054 62.9209 206.685 63.2897C206.316 63.6585 206.132 64.1105 206.132 64.6399C206.132 65.1753 206.316 65.6274 206.685 65.9961Z" fill="white"/>
<path d="M238 54.5695H73.2802V55.8543H238V54.5695Z" fill="white"/>
<path d="M29.7797 0.166565L0.02975 17.3154L0 51.6489L29.7321 68.8335L59.4821 51.6846L59.5059 17.3511L29.7797 0.166565ZM10.9063 24.8043L27.6794 34.5L10.8944 44.1719L10.9063 24.8043ZM29.6964 56.2112L11.9059 45.9326L29.7024 35.6718L47.4929 45.9564L29.6964 56.2112ZM29.7024 33.3282L11.9238 23.0496L29.7202 12.7888L47.5048 23.0734L29.7024 33.3282Z" fill="white"/>
</g>
<defs>
<clipPath id="clip0_6_3">
<rect width="238" height="69" fill="white"/>
</clipPath>
</defs>
</svg>
