<svg width="18" height="18" viewBox="0 0 18 18" fill="none" xmlns="http://www.w3.org/2000/svg">
<g clip-path="url(#clip0_36_21)">
<path d="M17.9611 13.9467C17.9102 13.7933 17.5863 13.5673 16.9896 13.2693C16.828 13.1754 16.5976 13.0477 16.2996 12.8857C16.0013 12.7238 15.7306 12.5745 15.4878 12.4382C15.2446 12.3018 15.0167 12.1697 14.8038 12.0421C14.7698 12.0165 14.6633 11.942 14.4843 11.8182C14.3051 11.6947 14.1541 11.603 14.0303 11.5433C13.9067 11.4838 13.7852 11.4539 13.6659 11.4539C13.4955 11.4539 13.2826 11.5754 13.027 11.8182C12.7714 12.0612 12.537 12.3252 12.324 12.611C12.111 12.8966 11.8851 13.1606 11.6467 13.4035C11.408 13.6465 11.2118 13.7679 11.0586 13.7679C10.9817 13.7679 10.8858 13.7465 10.7708 13.7042C10.6559 13.6616 10.5685 13.6251 10.5085 13.5957C10.449 13.5656 10.347 13.5062 10.202 13.4164C10.0568 13.3269 9.97599 13.2778 9.95897 13.2693C8.79143 12.6214 7.7901 11.8799 6.95479 11.045C6.11976 10.2095 5.37817 9.2083 4.73048 8.04062C4.72197 8.02356 4.67286 7.94256 4.58344 7.79776C4.49388 7.65281 4.4342 7.55068 4.40438 7.49086C4.37456 7.43126 4.33833 7.34386 4.29579 7.22883C4.25326 7.1138 4.2319 7.01798 4.2319 6.94118C4.2319 6.78787 4.35338 6.59175 4.59629 6.35309C4.83915 6.11457 5.10342 5.88863 5.38883 5.67572C5.67446 5.4628 5.93846 5.22835 6.18142 4.97277C6.42428 4.71705 6.54572 4.5041 6.54572 4.33368C6.54572 4.21444 6.51589 4.09287 6.4563 3.96933C6.39666 3.84553 6.30504 3.69445 6.18142 3.51539C6.05774 3.33642 5.98319 3.22999 5.95758 3.19573C5.82988 2.98282 5.69792 2.75486 5.5614 2.51195C5.42487 2.26909 5.27586 1.99837 5.11386 1.70011C4.95199 1.40199 4.82424 1.1718 4.73039 1.00989C4.43227 0.41342 4.20646 0.0894184 4.05302 0.0384629C3.99333 0.0128956 3.90378 0 3.78458 0C3.55434 0 3.25398 0.0425375 2.88328 0.127881C2.51244 0.213091 2.22063 0.302464 2.00754 0.39636C1.58141 0.575242 1.12975 1.0951 0.652432 1.95574C0.217788 2.7567 0.000488281 3.54947 0.000488281 4.33345C0.000488281 4.56338 0.0153988 4.78708 0.0452198 5.00461C0.0750409 5.22191 0.128325 5.46697 0.205116 5.73975C0.281773 6.01243 0.343609 6.215 0.390356 6.34691C0.437147 6.47891 0.524506 6.71538 0.652387 7.05639C0.780089 7.39732 0.856881 7.60602 0.882448 7.68273C1.1807 8.51798 1.53439 9.26364 1.94342 9.91993C2.61641 11.0108 3.53482 12.1381 4.69811 13.3015C5.86144 14.4648 6.98855 15.3831 8.07948 16.0564C8.73568 16.4654 9.48161 16.819 10.3167 17.1175C10.3935 17.1429 10.6022 17.2195 10.943 17.3477C11.2839 17.4755 11.5205 17.5629 11.6525 17.6097C11.7845 17.6567 11.9871 17.7185 12.2596 17.7953C12.5326 17.8721 12.7775 17.9254 12.9948 17.9554C13.2122 17.9849 13.4359 18 13.6659 18C14.4499 18 15.2427 17.7826 16.0438 17.348C16.9043 16.8709 17.424 16.4191 17.603 15.9927C17.6971 15.7798 17.7863 15.4879 17.8715 15.1171C17.957 14.7464 17.9994 14.4461 17.9994 14.2159C17.9997 14.0962 17.9868 14.0069 17.9611 13.9467Z" fill="#F8BE4D"/>
</g>
<defs>
<clipPath id="clip0_36_21">
<rect width="18" height="18" fill="white"/>
</clipPath>
</defs>
</svg>
