<svg width="45" height="66" viewBox="0 0 45 66" fill="none" xmlns="http://www.w3.org/2000/svg">
<path d="M43.5197 53.4759C42.9857 53.4759 42.5529 53.9087 42.5529 54.4426V63.5323C42.5529 63.8266 42.3133 64.0661 42.0191 64.0661H36.8219V45.0271C36.8219 44.4932 36.3891 44.0603 35.8551 44.0603C35.3212 44.0603 34.8884 44.4932 34.8884 45.0271V64.0663H24.4231L27.4579 60.7276C27.7895 60.3628 27.9458 59.8432 27.8761 59.3371C27.8748 59.3273 27.8733 59.3175 27.8716 59.3077L24.9811 42.2319L25.7599 41.0596C26.1904 41.3654 26.5221 41.6598 27.1441 41.6598C27.7767 41.6598 28.3683 41.3057 28.6593 40.7228V40.7226L31.708 34.6125L38.6529 37.3021C38.9042 37.4099 42.5526 39.0529 42.5526 43.3914V49.9308C42.5525 50.4646 42.9853 50.8976 43.5194 50.8976C44.0533 50.8976 44.4862 50.4647 44.4862 49.9308V43.3914C44.4862 37.6752 39.5918 35.5973 39.3834 35.5116C39.3774 35.509 39.3712 35.5066 39.365 35.5043L27.8062 31.0279V28.317C29.6421 26.8892 30.9151 24.7727 31.2346 22.358C32.15 22.2936 32.9994 21.9517 33.693 21.3553C34.5988 20.5763 35.1186 19.4425 35.1186 18.2453C35.1186 17.2517 34.7601 16.3029 34.1212 15.5636V11.9822C34.1211 5.37526 28.746 0 22.139 0C15.532 0 10.1569 5.37526 10.1569 11.9822V15.6575C9.51122 16.3893 9.16008 17.2901 9.16008 18.2451C9.16008 19.4428 9.67957 20.5764 10.5857 21.3555C11.2788 21.9517 12.1276 22.2932 13.0427 22.3578C13.3649 24.8177 14.6749 27.0131 16.6672 28.4601V31.0279L5.12093 35.5041C5.11487 35.5065 5.10881 35.5089 5.10275 35.5114C4.89431 35.5971 0 37.6749 0 43.3911V63.5321C0 64.8927 1.10692 65.9996 2.46752 65.9996H11.6788C12.2127 65.9996 12.6456 65.5667 12.6456 65.0328C12.6456 64.4989 12.2127 64.066 11.6788 64.066H9.59862V45.0271C9.59862 44.4932 9.16575 44.0603 8.63182 44.0603C8.09789 44.0603 7.66502 44.4932 7.66502 45.0271V64.0663H2.46765C2.17336 64.0663 1.93385 63.8268 1.93385 63.5325V43.3913C1.93385 39.0382 5.60678 37.3989 5.83236 37.3025L12.7719 34.6122L15.8208 40.7226C16.1125 41.307 16.7048 41.6598 17.3362 41.6598C17.9551 41.6598 18.2835 41.3699 18.7204 41.0596L19.4991 42.2319L16.6089 59.3078C16.6073 59.3175 16.6058 59.3272 16.6044 59.337C16.5345 59.8428 16.6909 60.3627 17.0226 60.7277L20.0574 64.0664H16.1909C15.657 64.0664 15.2241 64.4993 15.2241 65.0332C15.2241 65.5671 15.657 66 16.1909 66H42.0192C43.3798 66 44.4867 64.893 44.4867 63.5325V54.4428C44.4865 53.9087 44.0536 53.4759 43.5197 53.4759ZM29.897 33.9112L27.0547 39.6076C26.9841 39.5575 25.4778 38.4873 23.6365 37.1798C24.4355 36.1935 23.5008 37.3472 27.1473 32.8463L29.897 33.9112ZM24.1823 39.9394L23.4452 41.0489H21.0343L20.2972 39.9394L22.2398 38.5597L24.1823 39.9394ZM18.6007 31.3398V29.5305C19.7752 30.004 21.0305 30.2235 22.2564 30.2235C23.524 30.2235 24.767 29.9533 25.8725 29.4699V31.3477L22.2398 35.8317L18.6007 31.3398ZM33.1849 18.2453C33.1847 18.8786 32.9104 19.4779 32.4322 19.8892C32.116 20.1612 31.734 20.3351 31.3157 20.4032V16.0878C32.4269 16.2682 33.1849 17.1899 33.1849 18.2453ZM12.9628 20.4032C11.839 20.2208 11.0937 19.2916 11.0937 18.2451C11.0937 17.2116 11.9505 16.3703 12.9628 16.1364V20.4032ZM13.0148 14.1663C12.7068 14.2016 12.3539 14.285 12.0908 14.3745V11.9822C12.0908 6.44145 16.5984 1.93372 22.1391 1.93372C27.6799 1.93372 32.1875 6.44145 32.1875 11.9822V14.3081C31.9065 14.2226 31.615 14.1662 31.3158 14.1396C31.3158 13.2067 31.324 13.3867 28.2721 10.1056C27.7108 9.50258 26.7825 9.37625 26.0759 9.83787C22.7076 12.0382 18.5987 13.1435 14.8076 12.8713C13.976 12.809 13.2186 13.3568 13.0148 14.1663ZM14.8965 21.1643V15.1326V14.8148C19.0699 15.0592 23.4453 13.8194 26.9801 11.5557C28.3797 13.0585 29.1377 13.8467 29.3821 14.1466C29.3821 14.905 29.3821 20.296 29.3821 21.1642C29.3821 25.089 26.1819 28.2896 22.2566 28.2896C17.8487 28.2898 14.8965 24.8704 14.8965 21.1643ZM17.425 39.6076L14.5828 33.9112L17.3276 32.8481L20.8391 37.1826C19.0534 38.4507 17.5871 39.4925 17.425 39.6076ZM18.5343 59.5163L21.3327 42.9824H23.1465L25.945 59.5163L22.2397 63.5927L18.5343 59.5163Z" fill="#F8BE4D"/>
</svg>
