<svg width="66" height="66" viewBox="0 0 66 66" fill="none" xmlns="http://www.w3.org/2000/svg">
<path d="M9.17517 14.5374C7.56177 14.5374 6.24938 15.8499 6.24938 17.4631C6.24938 19.0765 7.5619 20.3889 9.17517 20.3889C10.7884 20.3889 12.101 19.0764 12.101 17.4631C12.1011 15.8499 10.7886 14.5374 9.17517 14.5374ZM9.17504 18.4553C8.62796 18.4553 8.18297 18.0103 8.18297 17.4633C8.18297 16.9162 8.62796 16.4712 9.17504 16.4712C9.72212 16.4712 10.1671 16.9162 10.1671 17.4633C10.1671 18.0103 9.72224 18.4553 9.17504 18.4553Z" fill="#F8BE4D"/>
<path d="M17.2595 14.5374C15.6461 14.5374 14.3337 15.8499 14.3337 17.4631C14.3337 19.0765 15.6463 20.3889 17.2595 20.3889C18.8729 20.3889 20.1853 19.0764 20.1853 17.4631C20.1853 15.8499 18.8729 14.5374 17.2595 14.5374ZM17.2594 18.4553C16.7123 18.4553 16.2673 18.0103 16.2673 17.4633C16.2673 16.9162 16.7124 16.4712 17.2594 16.4712C17.8065 16.4712 18.2515 16.9162 18.2515 17.4633C18.2515 18.0103 17.8065 18.4553 17.2594 18.4553Z" fill="#F8BE4D"/>
<path d="M25.3439 14.5374C23.7305 14.5374 22.4181 15.8499 22.4181 17.4631C22.4181 19.0765 23.7306 20.3889 25.3439 20.3889C26.9573 20.3889 28.2697 19.0764 28.2697 17.4631C28.2697 15.8499 26.9573 14.5374 25.3439 14.5374ZM25.3439 18.4553C24.7968 18.4553 24.3518 18.0103 24.3518 17.4633C24.3518 16.9162 24.7968 16.4712 25.3439 16.4712C25.8909 16.4712 26.3359 16.9162 26.3359 17.4633C26.3359 18.0103 25.8909 18.4553 25.3439 18.4553Z" fill="#F8BE4D"/>
<path d="M58.5711 42.9492H23.3848C22.8508 42.9492 22.418 43.3821 22.418 43.916C22.418 44.4499 22.8508 44.8828 23.3848 44.8828H58.5713C59.1052 44.8828 59.5381 44.4499 59.5381 43.916C59.5381 43.3821 59.1052 42.9492 58.5711 42.9492Z" fill="#F8BE4D"/>
<path d="M65.0332 31.9261C65.5671 31.9261 66 31.4932 66 30.9593V17.1908C66 15.218 64.395 13.613 62.4221 13.613H34.9898V6.52019C34.9898 4.98762 33.743 3.74097 32.2106 3.74097H19.5154C18.9814 3.74097 18.5486 4.17383 18.5486 4.70776C18.5486 5.24169 18.9814 5.67456 19.5154 5.67456H32.2106C32.6768 5.67456 33.0561 6.0538 33.0561 6.52006C33.0561 7.14177 33.0561 27.519 33.0561 28.1403C33.0561 28.6066 32.6768 28.986 32.2106 28.986H29.6737C28.8405 28.986 28.1623 29.6639 28.1623 30.4973V35.3719L23.2684 29.7314C22.8573 29.2576 22.2617 28.9858 21.6343 28.9858C21.1272 28.9858 3.25424 28.9858 2.77922 28.9858C2.31296 28.9858 1.93372 28.6066 1.93372 28.1403V6.52019C1.93372 6.05393 2.31296 5.67469 2.77922 5.67469H15.0034C15.5373 5.67469 15.9702 5.24182 15.9702 4.70789C15.9702 4.17396 15.5373 3.7411 15.0034 3.7411H2.77922C1.24678 3.74097 0 4.98775 0 6.52019V28.1406C0 29.6732 1.24678 30.9198 2.77922 30.9198H16.4446V48.3375C16.4446 50.3104 18.0496 51.9154 20.0225 51.9154H23.4947V60.577C23.4947 62.1312 25.4265 62.8494 26.4432 61.6778L34.6873 52.1763C34.8311 52.0106 35.0394 51.9154 35.259 51.9154H62.4221C64.395 51.9154 66 50.3104 66 48.3375V35.4711C66 34.9372 65.5671 34.5043 65.0332 34.5043C64.4993 34.5043 64.0664 34.9372 64.0664 35.4711V48.3375C64.0664 49.2441 63.3289 49.9817 62.4222 49.9817H35.2591C34.4789 49.9817 33.7381 50.3197 33.2267 50.9089L25.4284 59.8967V51.7328C25.4284 50.7671 24.6429 49.9816 23.6772 49.9816H20.0225C19.1159 49.9816 18.3783 49.2441 18.3783 48.3374V30.9199H21.6343C21.701 30.9199 21.7641 30.9488 21.8077 30.9991L22.9414 32.3058C22.6307 32.4666 22.418 32.7904 22.418 33.1643C22.418 33.6983 22.8508 34.1311 23.3848 34.1311H24.5254L27.5121 37.5734H23.3848C22.8508 37.5734 22.418 38.0063 22.418 38.5402C22.418 39.0742 22.8508 39.507 23.3848 39.507H58.5711C59.1051 39.507 59.5379 39.0742 59.5379 38.5402C59.5379 38.0063 59.1051 37.5734 58.5711 37.5734H29.7589C29.9831 37.3052 30.096 36.973 30.096 36.6367V34.1313H58.5711C59.1051 34.1313 59.5379 33.6984 59.5379 33.1645C59.5379 32.6305 59.1051 32.1975 58.5711 32.1975H30.096V30.9199H32.2104C33.5245 30.9199 34.6358 30.0028 34.9189 28.7552H58.5711C59.1051 28.7552 59.5379 28.3224 59.5379 27.7884C59.5379 27.2545 59.1051 26.8216 58.5711 26.8216H34.9898V23.3793H58.5711C59.1051 23.3793 59.5379 22.9465 59.5379 22.4125C59.5379 21.8786 59.1051 21.4457 58.5711 21.4457H34.9898V15.5468H62.4221C63.3287 15.5468 64.0663 16.2843 64.0663 17.1909V30.9594C64.0663 31.4932 64.4991 31.9261 65.0332 31.9261Z" fill="#F8BE4D"/>
</svg>
