<svg width="66" height="66" viewBox="0 0 66 66" fill="none" xmlns="http://www.w3.org/2000/svg">
<g clip-path="url(#clip0_8_98)">
<path d="M33.0402 5.48096C12.0826 5.48096 -1.48267 28.2287 9.41145 46.9709C20.0541 64.8508 45.9706 64.9452 56.6693 46.9709C59.3411 42.3742 60.5447 37.5749 60.5447 32.9854C60.5447 17.9525 48.303 5.48096 33.0402 5.48096ZM55.6139 44.9005L53.2945 43.5614C52.8313 43.2941 52.2394 43.4526 51.9722 43.9156C51.7048 44.3787 51.8635 44.9707 52.3265 45.238L54.6419 46.5747C52.6005 49.8023 49.8563 52.5426 46.6257 54.5797L45.2928 52.2715C45.0254 51.8083 44.4333 51.6501 43.9704 51.9171C43.5074 52.1845 43.3489 52.7765 43.6162 53.2394L44.9499 55.5496C41.6601 57.291 37.9469 58.3343 34.0082 58.4818V55.8139C34.0082 55.2792 33.5748 54.8459 33.0401 54.8459C32.5055 54.8459 32.072 55.2791 32.072 55.8139V58.4818C28.1333 58.3343 24.4201 57.291 21.1303 55.5496L22.464 53.2394C22.7313 52.7764 22.5726 52.1845 22.1096 51.9171C21.6465 51.6499 21.0547 51.8083 20.7873 52.2715L19.4545 54.5798C16.224 52.5426 13.4799 49.8024 11.4382 46.5749L13.7537 45.2381C14.2167 44.9707 14.3752 44.3787 14.1079 43.9158C13.8405 43.4527 13.2485 43.2943 12.7856 43.5615L10.4662 44.9006C8.71871 41.6103 7.66993 37.8952 7.51846 33.9536H10.2112C10.7458 33.9536 11.1793 33.5204 11.1793 32.9856C11.1793 32.4509 10.7459 32.0175 10.2112 32.0175H7.51692C7.66065 28.0724 8.70324 24.3532 10.4458 21.0582L12.7861 22.4093C12.9385 22.4974 13.105 22.5391 13.2692 22.5391C13.6037 22.5391 13.9292 22.3654 14.1084 22.055C14.3758 21.5919 14.2171 21 13.754 20.7326L11.4149 19.3822C13.4543 16.1455 16.1993 13.3967 19.433 11.3529L20.7876 13.6991C20.9669 14.0097 21.2922 14.1833 21.6267 14.1833C21.791 14.1833 21.9574 14.1415 22.1099 14.0535C22.5729 13.7861 22.7315 13.1941 22.4641 12.7312L21.1076 10.3816C24.4031 8.63297 28.1243 7.58509 32.0721 7.43724V10.1568C32.0721 10.6913 32.5055 11.1249 33.0402 11.1249C33.5748 11.1249 34.0083 10.6915 34.0083 10.1568V7.43724C37.9562 7.58509 41.6773 8.63284 44.9728 10.3816L43.6163 12.7312C43.349 13.1942 43.5077 13.7861 43.9706 14.0535C44.1231 14.1415 44.2895 14.1833 44.4537 14.1833C44.7882 14.1833 45.1137 14.0095 45.2929 13.6991L46.6474 11.3529C49.8812 13.3966 52.6261 16.1455 54.6657 19.3822L52.3265 20.7326C51.8635 21 51.7049 21.592 51.9722 22.055C52.1515 22.3655 52.4768 22.5391 52.8113 22.5391C52.9756 22.5391 53.142 22.4974 53.2945 22.4093L55.6348 21.0582C57.3773 24.3532 58.4198 28.0724 58.5637 32.0175H55.8689C55.3343 32.0175 54.9008 32.4507 54.9008 32.9856C54.9008 33.5203 55.3342 33.9536 55.8689 33.9536H58.5616C58.41 37.8951 57.3614 41.6102 55.6139 44.9005Z" fill="#F8BE4D"/>
<path d="M47.4567 32.3008L44.4353 29.2794C44.0572 28.9014 43.4442 28.9014 43.0663 29.2794C42.6882 29.6576 42.6882 30.2704 43.0663 30.6485L44.4485 32.0308H37.6544V30.8625C37.6544 29.4747 36.5253 28.3456 35.1375 28.3456H34.0084V16.7132L35.3907 18.0956C35.5797 18.2847 35.8274 18.3792 36.0752 18.3792C36.3229 18.3792 36.5707 18.2847 36.7597 18.0956C37.1378 17.7175 37.1378 17.1046 36.7597 16.7266L33.7381 13.705C33.5566 13.5234 33.3104 13.4214 33.0536 13.4214C32.7968 13.4214 32.5506 13.5234 32.3691 13.705L29.3476 16.7266C28.9695 17.1047 28.9695 17.7176 29.3476 18.0956C29.7256 18.4737 30.3386 18.4737 30.7165 18.0956L32.0723 16.7399V28.3457H30.9432C29.5554 28.3457 28.4263 29.4748 28.4263 30.8626V35.0568C28.4263 36.4446 29.5554 37.5737 30.9432 37.5737H35.1374C36.5252 37.5737 37.6543 36.4446 37.6543 35.0568V33.9669H44.422L43.0664 35.3225C42.6883 35.7006 42.6883 36.3135 43.0664 36.6915C43.2554 36.8806 43.5031 36.9751 43.7509 36.9751C43.9987 36.9751 44.2464 36.8806 44.4354 36.6916L47.457 33.6702C47.6386 33.4886 47.7406 33.2425 47.7406 32.9856C47.7403 32.7286 47.6383 32.4824 47.4567 32.3008ZM35.7181 35.0567C35.7181 35.3715 35.452 35.6375 35.1373 35.6375H30.943C30.6282 35.6375 30.3622 35.3715 30.3622 35.0567V30.8625C30.3622 30.5477 30.6282 30.2816 30.943 30.2816H35.1373C35.452 30.2816 35.7181 30.5477 35.7181 30.8625V35.0567Z" fill="#F8BE4D"/>
<path d="M65.9975 30.6333C64.8521 14.2516 51.7163 1.14532 35.3665 0.00230335C34.8338 -0.0336615 34.3705 0.367237 34.3333 0.900522C34.2962 1.43381 34.6982 1.89645 35.2315 1.93371C50.5957 3.00788 62.992 15.4042 64.0661 30.7684C64.1018 31.2787 64.527 31.6689 65.0309 31.6689C65.0536 31.6689 65.0764 31.6681 65.0995 31.6664C65.6326 31.6292 66.0348 31.1667 65.9975 30.6333Z" fill="#F8BE4D"/>
<path d="M65.0993 34.2527C64.5668 34.2146 64.1034 34.6175 64.0661 35.1508C62.9325 51.3638 49.3042 64.0639 33.0402 64.0639C15.8894 64.0639 1.93604 50.1107 1.93604 32.9597C1.93604 16.6956 14.6361 3.06736 30.8489 1.93375C31.3822 1.8965 31.7844 1.43386 31.7472 0.90057C31.7099 0.367285 31.2469 -0.0329685 30.714 0.00235178C13.5158 1.20492 0 15.5722 0 32.9597C0 51.1781 14.8218 65.9999 33.0402 65.9999C50.4225 65.9999 64.7945 52.4888 65.9976 35.2859C66.0348 34.7525 65.6327 34.29 65.0993 34.2527Z" fill="#F8BE4D"/>
</g>
<defs>
<clipPath id="clip0_8_98">
<rect width="66" height="66" fill="white"/>
</clipPath>
</defs>
</svg>
