<svg width="66" height="66" viewBox="0 0 66 66" fill="none" xmlns="http://www.w3.org/2000/svg">
<g clip-path="url(#clip0_8_0)">
<path d="M63.0696 37.8525C61.7381 36.5951 60.3879 36.0661 60.1259 35.971L55.6768 34.1172L52.5607 32.0609V31.0148C54.888 29.7977 56.5829 27.5323 57.0132 24.8483C58.9683 24.5883 60.4822 22.911 60.4822 20.8857C60.4822 19.8464 60.0833 18.8986 59.4312 18.1868V14.3534C59.4312 8.18537 54.4131 3.1673 48.2451 3.1673H47.3997C42.3217 3.1673 37.8917 6.57739 36.5904 11.4709C35.614 11.2067 34.588 11.0629 33.529 11.0629H32.6384C31.523 11.0629 30.4448 11.2228 29.4219 11.5149C28.1359 6.59737 23.6939 3.16718 18.6004 3.16718H17.755C11.587 3.16718 6.56893 8.18524 6.56893 14.3533V18.1868C5.91667 18.8986 5.51783 19.8464 5.51783 20.8857C5.51783 22.911 7.03171 24.5884 8.98683 24.8483C9.41699 27.5323 11.112 29.7977 13.4392 31.0148V32.0609L10.3233 34.1171L5.87413 35.9709C5.61206 36.0659 4.26203 36.595 2.93043 37.8524C1.59354 39.1147 0 41.3845 0 45.0285V51.3621C0 51.9377 0.466641 52.4058 1.04208 52.4058H14.128C13.9339 53.2152 13.8186 54.1154 13.8186 55.1155V61.7892C13.8186 62.3649 14.2853 62.833 14.8607 62.833H27.2423H29.9814H36.2261H36.229H38.7577H39.3453C39.921 62.833 40.3874 62.3666 40.3874 61.7909C40.3874 61.2152 39.921 60.7488 39.3453 60.7488H38.7577H37.1137L35.8554 52.9485L36.3473 51.6384L37.0907 52.1856C37.2714 52.3187 37.4883 52.3885 37.7083 52.3885C37.7917 52.3885 37.8754 52.3784 37.9579 52.3582C38.2581 52.2841 38.5102 52.0804 38.6453 51.8022L41.4756 45.9849L45.2516 47.5585C45.2743 47.5679 45.2973 47.5765 45.3206 47.5844C45.3684 47.6004 50.0972 49.2574 50.0972 55.1155V60.7488H45.7741V54.8118C45.7741 54.2361 45.3077 53.7697 44.732 53.7697C44.1563 53.7697 43.6899 54.2361 43.6899 54.8118V60.7488H42.5877C42.012 60.7488 41.5456 61.2152 41.5456 61.7909C41.5456 62.3666 42.012 62.833 42.5877 62.833H51.1394C51.7151 62.833 52.1815 62.3533 52.1815 61.7778V55.1152C52.1815 54.1152 52.0663 53.2149 51.8721 52.4055H64.9582C65.5339 52.4055 66.0003 51.9265 66.0003 51.351V45.0282C66 41.3845 64.4065 39.1147 63.0696 37.8525ZM55.037 23.5024C55.037 27.0255 52.1707 29.8918 48.6477 29.8918H47.0353C46.8102 29.8918 46.5857 29.8781 46.3627 29.8549C46.3651 29.7957 46.3671 29.7362 46.3671 29.6764C46.3671 28.5881 45.9463 27.5967 45.2595 26.8549V22.7932C45.2595 20.9392 44.8255 19.1851 44.0562 17.6249C46.3417 17.072 49.0232 16.0142 51.0984 13.9859C51.7428 15.3611 52.9464 17.1522 55.0369 17.9451V23.5024H55.037ZM50.4765 31.7751V33.9051L47.7987 36.6847L45.2047 34.1578C45.2051 34.1463 45.2065 34.1351 45.2065 34.1236V32.5548C45.2065 32.5545 45.2065 32.5542 45.2065 32.5537V32.5535C45.4058 32.3461 45.584 32.1184 45.737 31.8733C46.1656 31.9393 46.5997 31.9759 47.0353 31.9759H48.6477C49.2756 31.976 49.8871 31.9054 50.4765 31.7751ZM44.2829 29.6765C44.2829 30.2023 44.0845 30.6813 43.7608 31.0474C43.5667 31.129 43.403 31.2681 43.2897 31.4429C43.1453 31.5316 42.9905 31.6051 42.8257 31.6564V27.6969C43.6691 27.9598 44.2829 28.7479 44.2829 29.6765ZM58.398 20.8856C58.398 21.7176 57.8636 22.4251 57.1212 22.6886V19.0825C57.8638 19.3459 58.398 20.0536 58.398 20.8856ZM38.5833 12.0819C39.6159 8.06007 43.2412 5.25133 47.3996 5.25133H48.245C53.2638 5.25133 57.3469 9.33444 57.3469 14.3533V16.9818C57.2629 16.9632 57.1784 16.9464 57.0924 16.9332C57.0025 16.5533 56.7042 16.247 56.3102 16.1574C53.393 15.4938 52.4958 11.7706 52.4875 11.7358C52.3972 11.3365 52.0811 11.0271 51.6799 10.9451C51.2788 10.8633 50.8667 11.0236 50.6268 11.3554C48.6728 14.0568 45.4151 15.2351 42.9017 15.7488C41.7639 14.2392 40.2707 13.0125 38.5474 12.1934C38.5613 12.157 38.5735 12.1201 38.5833 12.0819ZM32.6385 13.1467H33.5289V13.147C38.848 13.147 43.1755 17.4744 43.1755 22.7934V25.6335C43.0542 25.6046 42.9311 25.5805 42.8059 25.5624C42.8032 25.5488 42.7996 25.5356 42.7965 25.5221C42.7924 25.5046 42.7881 25.487 42.7831 25.4699C42.7781 25.4527 42.7721 25.4362 42.7663 25.4196C42.7612 25.4051 42.7561 25.3905 42.7503 25.376C42.7433 25.3584 42.7354 25.3412 42.7273 25.3242C42.7212 25.3111 42.7151 25.2979 42.7083 25.285C42.6996 25.2683 42.6903 25.2522 42.6807 25.2361C42.6731 25.2232 42.6658 25.2104 42.6575 25.1979C42.648 25.1832 42.6377 25.169 42.6274 25.1547C42.6178 25.1416 42.6082 25.1283 42.5981 25.1155C42.588 25.103 42.5777 25.091 42.567 25.0789C42.5552 25.0654 42.5433 25.052 42.5308 25.0391C42.5206 25.0286 42.5101 25.0189 42.4995 25.0088C42.4854 24.9956 42.4715 24.9825 42.4568 24.97C42.4461 24.961 42.435 24.9525 42.424 24.9437C42.4089 24.9318 42.3934 24.92 42.3774 24.909C42.3652 24.9004 42.3524 24.8927 42.3396 24.8845C42.3243 24.8747 42.3088 24.8651 42.2929 24.856C42.2779 24.8475 42.2622 24.8399 42.2466 24.8322C42.2323 24.8251 42.2182 24.8179 42.2035 24.8114C42.1846 24.8031 42.1652 24.7958 42.1456 24.7886C42.1334 24.784 42.1213 24.7792 42.1088 24.7751C42.0867 24.7679 42.0642 24.7619 42.0415 24.7561C42.0327 24.7539 42.0241 24.7507 42.0152 24.7488C38.9062 24.0414 37.9539 20.085 37.9452 20.0478C37.8549 19.6485 37.5388 19.3391 37.1378 19.2571C36.7365 19.1749 36.3245 19.3355 36.0846 19.6673C32.4628 24.6743 24.5488 24.7229 24.429 24.7229C24.4268 24.723 24.4257 24.7229 24.424 24.7229C24.3882 24.7229 24.3527 24.7247 24.3176 24.7283C24.3094 24.7291 24.3017 24.7309 24.2934 24.7319C24.2669 24.7353 24.2402 24.7387 24.2144 24.744C24.2047 24.746 24.1953 24.749 24.1858 24.7514C24.1619 24.7569 24.1378 24.7625 24.1146 24.7695C24.1021 24.7734 24.0903 24.7786 24.0781 24.7828C24.0584 24.7898 24.0384 24.7964 24.0192 24.8043C24.0038 24.8109 23.9892 24.8187 23.9742 24.826C23.9589 24.8334 23.9433 24.8401 23.9284 24.848C23.913 24.8564 23.8987 24.866 23.8839 24.875C23.8701 24.8835 23.8559 24.8911 23.8426 24.9001C23.8281 24.9101 23.8144 24.921 23.8005 24.9316C23.7878 24.941 23.7746 24.9499 23.7626 24.9599C23.7492 24.9709 23.7371 24.983 23.7242 24.9945C23.7123 25.0053 23.6998 25.0156 23.6885 25.0268C23.6766 25.0387 23.6659 25.0515 23.6547 25.0638C23.6435 25.0761 23.6317 25.0878 23.6212 25.1007C23.6107 25.1133 23.6014 25.1269 23.5917 25.1399C23.5815 25.1536 23.5706 25.1666 23.5611 25.1808C23.5521 25.194 23.5443 25.2082 23.5358 25.222C23.5268 25.2368 23.5173 25.2511 23.5089 25.2663C23.5012 25.2807 23.4946 25.2956 23.4875 25.3104C23.48 25.326 23.4718 25.3412 23.4649 25.3572C23.4585 25.3723 23.4536 25.388 23.4478 25.4035C23.4417 25.4199 23.435 25.436 23.4297 25.4529C23.4247 25.4687 23.4212 25.4851 23.4171 25.5012C23.4127 25.5184 23.4076 25.5351 23.404 25.5525C23.4033 25.5557 23.4028 25.5591 23.4022 25.5622C23.2632 25.5822 23.1264 25.609 22.9922 25.6425V22.7932C22.9922 17.4741 27.3196 13.1467 32.6385 13.1467ZM33.0602 46.4032L30.2685 43.6842C30.2696 43.6646 30.2714 43.6454 30.2714 43.6257V41.9722C30.2714 41.9712 30.2714 41.9704 30.2714 41.9696V41.0803C30.9095 41.2266 31.5726 41.3065 32.2545 41.3065H33.9534C34.6148 41.3065 35.2588 41.2315 35.8792 41.0937C35.8983 41.0931 35.9173 41.0918 35.9364 41.0909V43.4176L33.0602 46.4032ZM34.6029 50.3547L34.0606 51.7993H32.1188L31.5058 50.3362L33.0418 49.2057L34.6029 50.3547ZM19.0581 41.8277H17.2874L16.7997 40.5289L18.2175 39.4856L19.6101 40.5105L19.0581 41.8277ZM19.1958 45.9687C18.5943 46.2742 17.739 46.7921 16.8888 47.5951C16.8769 47.6062 16.8652 47.6179 16.8533 47.6291L17.453 43.912H18.864L19.1958 45.9687ZM18.2013 36.6849L15.5235 33.9053V31.7752C16.1129 31.9054 16.7244 31.9762 17.3525 31.9762H18.9648C19.4646 31.9762 19.9632 31.9322 20.4527 31.8457C20.5554 32.0129 20.6691 32.1722 20.7936 32.3227V32.5525C20.7936 32.5537 20.7936 32.5547 20.7936 32.5559V34.1239C20.7936 34.1354 20.795 34.1466 20.7953 34.158L18.2013 36.6849ZM22.5628 35.3457C22.8048 35.1101 22.9065 34.7857 22.8693 34.4745L23.7845 35.0784C23.884 35.3963 24.0026 35.7057 24.1359 36.0071L22.2564 39.8705L19.7853 38.0517L22.5628 35.3457ZM21.9245 29.6766C21.9245 28.7477 22.5385 27.9596 23.3818 27.6967V31.6564C22.5385 31.3935 21.9245 30.6054 21.9245 29.6766ZM21.3372 41.7814L22.0285 42.2901C22.2093 42.4233 22.4262 42.493 22.6462 42.493C22.7295 42.493 22.8133 42.4829 22.8957 42.4627C23.196 42.3886 23.448 42.1849 23.5831 41.9067L25.4342 38.1017C26.1916 39.0114 27.1277 39.7661 28.1872 40.315V41.3997L24.8464 43.6043C24.8012 43.6163 24.7561 43.6305 24.7118 43.6488L21.1709 45.1244L20.8278 42.9977L21.3372 41.7814ZM28.2185 43.8762C28.1328 44.2234 28.2272 44.6055 28.5019 44.8731L31.4759 47.7702L28.765 49.7655L26.4634 45.0344L28.2185 43.8762ZM33.9535 39.2223H32.2547C28.5116 39.2223 25.4662 36.1771 25.4662 32.4339V26.762C27.7017 26.5999 32.9901 25.8455 36.5536 22.3119C37.223 23.7679 38.4978 25.7027 40.742 26.5383V32.4338H40.7419C40.7417 36.1771 37.6966 39.2223 33.9535 39.2223ZM8.87868 22.6886C8.13618 22.4251 7.60199 21.7176 7.60199 20.8856C7.60199 20.0536 8.13605 19.3461 8.87868 19.0825V22.6886ZM9.94847 16.1311C9.94692 16.1311 9.9455 16.1311 9.94383 16.1311C9.93996 16.1311 9.93622 16.1317 9.93236 16.1317C9.92849 16.1317 9.92475 16.1311 9.92088 16.1311C9.4282 16.1311 9.01648 16.4734 8.90781 16.9331C8.82183 16.9462 8.73714 16.9631 8.65309 16.9817V14.3531C8.65309 9.33431 12.7362 5.2512 17.755 5.2512H18.6004C22.7588 5.2512 26.3843 8.06007 27.4167 12.0818C27.4328 12.1443 27.4548 12.2035 27.481 12.2602C26.1087 12.9349 24.8872 13.87 23.88 15.0008C22.679 13.7488 22.2607 12.0029 22.2568 11.9863C22.1663 11.5869 21.8504 11.2776 21.4492 11.1956C21.0483 11.1137 20.636 11.274 20.3961 11.6058C17.1545 16.0869 10.0526 16.131 9.9486 16.131C9.94847 16.1311 9.94847 16.1311 9.94847 16.1311ZM10.963 23.5024V18.1704C13.0131 18.0142 17.6696 17.3179 20.8722 14.2231C21.247 15.0068 21.8099 15.9218 22.6245 16.69C21.5361 18.4691 20.9077 20.5591 20.9077 22.7932V26.8984C20.2446 27.6353 19.8403 28.6093 19.8403 29.6762C19.8403 29.7275 19.8424 29.7782 19.8442 29.8291C19.5535 29.8691 19.2596 29.8916 18.9647 29.8916H17.3523C13.8293 29.8919 10.963 27.0255 10.963 23.5024ZM13.463 34.5423C13.502 34.7265 13.5903 34.9029 13.7307 35.0485L16.6346 38.0629L14.1783 39.8704L12.042 35.4799L13.463 34.5423ZM14.3077 50.3215H8.16505V44.7402C8.16505 44.1645 7.69841 43.6981 7.12297 43.6981C6.54753 43.6981 6.08089 44.1645 6.08089 44.7402V50.3215H2.08416V45.0285C2.08416 39.5556 6.40239 37.9934 6.58131 37.9313C6.60451 37.9234 6.62759 37.9149 6.65027 37.9054L10.1876 36.4316L12.8514 41.9071C12.9868 42.1853 13.2387 42.389 13.5389 42.4631C13.6214 42.4833 13.7051 42.4934 13.7883 42.4934C14.0085 42.4934 14.2253 42.4236 14.406 42.2905L15.0551 41.8128L15.4923 42.9773L14.3077 50.3215ZM29.0938 60.749H27.2421H22.3102V60.7488V54.8118C22.3102 54.2361 21.8435 53.7697 21.2681 53.7697C20.6925 53.7697 20.226 54.2362 20.226 54.8118V60.7488H15.9028V55.1155C15.9028 49.3069 20.4889 47.6504 20.6795 47.5844C20.7027 47.5765 20.7258 47.568 20.7485 47.5585L24.5942 45.9559L27.4382 51.8022C27.5736 52.0804 27.8254 52.2841 28.1257 52.3582C28.2082 52.3783 28.2918 52.3885 28.3751 52.3885C28.5953 52.3885 28.8122 52.3187 28.9928 52.1856L29.7784 51.6074L30.3488 52.9695L29.0938 60.749ZM31.2051 60.7488L32.3128 53.8834H33.895L35.0026 60.7488H31.2051ZM37.3184 49.7654L36.4972 49.1609C36.495 49.1591 36.4926 49.1576 36.4903 49.1558L34.6249 47.7828L37.7289 44.5607C37.8901 44.3933 37.983 44.1861 38.0107 43.9722L39.62 45.034L37.3184 49.7654ZM44.8293 45.1246L41.3331 43.6675L38.024 41.4839C38.0228 41.4833 38.0218 41.4826 38.0208 41.482V40.3153C39.0197 39.7977 39.9076 39.0966 40.6407 38.2556L42.4171 41.907C42.5525 42.1852 42.8044 42.3888 43.1046 42.463C43.1871 42.4832 43.2707 42.4933 43.3541 42.4933C43.5742 42.4933 43.7911 42.4235 43.9717 42.2904L44.663 41.7817L45.1726 42.9981L44.8293 45.1246ZM43.7437 39.8703L41.9717 36.2281C42.1725 35.8059 42.3393 35.3649 42.4719 34.9093L43.1307 34.4745C43.0934 34.7857 43.1953 35.11 43.4372 35.3457L46.2148 38.0517L43.7437 39.8703ZM49.1112 47.5951C48.2608 46.7921 47.4057 46.2741 46.8042 45.9686L47.1361 43.912H48.5471L49.1467 47.6291C49.1348 47.6178 49.123 47.6062 49.1112 47.5951ZM48.7126 41.8277H46.942L46.39 40.5104L47.7826 39.4856L49.2004 40.529L48.7126 41.8277ZM49.3652 38.0627L52.269 35.0484C52.4094 34.9027 52.4978 34.7267 52.5369 34.5422L53.9575 35.4797L51.8215 39.8703L49.3652 38.0627ZM59.9191 50.3215V44.7402C59.9191 44.1645 59.4526 43.6981 58.877 43.6981C58.3013 43.6981 57.8349 44.1647 57.8349 44.7402V50.3215H51.6921L50.5074 42.9773L50.9445 41.8128L51.5937 42.2905C51.7744 42.4236 51.9912 42.4934 52.2113 42.4934C52.2947 42.4934 52.3783 42.4833 52.4608 42.4631C52.7611 42.3891 53.0132 42.1853 53.1483 41.9071L55.8122 36.4316L59.3495 37.9054C59.3722 37.9148 59.3952 37.9234 59.4184 37.9313C59.4633 37.9462 63.9156 39.5061 63.9156 45.0285V50.3215H59.9191Z" fill="#F8BE4D"/>
</g>
<defs>
<clipPath id="clip0_8_0">
<rect width="66" height="66" fill="white"/>
</clipPath>
</defs>
</svg>
